<?xml version="1.0" encoding="UTF-8"?>
<svg version="1.1" xmlns="http://www.w3.org/2000/svg" width="256" height="256">
<path d="M0 0 C84.48 0 168.96 0 256 0 C256 84.48 256 168.96 256 256 C171.52 256 87.04 256 0 256 C0 171.52 0 87.04 0 0 Z " fill="#FBFBFB" transform="translate(0,0)"/>
<path d="M0 0 C84.48 0 168.96 0 256 0 C256 84.48 256 168.96 256 256 C171.52 256 87.04 256 0 256 C0 171.52 0 87.04 0 0 Z M40 20 C38.15574011 22.26816301 38.15574011 22.26816301 37 25 C36.32455611 26.04356376 35.64911222 27.08712751 34.95320034 28.16231441 C32.72178447 32.0633918 32.43990421 35.66018053 32.49879456 40.09046936 C32.49326016 40.87625899 32.48772576 41.66204862 32.48202366 42.47165006 C32.46847279 45.08958168 32.4833555 47.70655067 32.49829102 50.32446289 C32.49450584 52.20736596 32.48900416 54.09026625 32.48191833 55.97315979 C32.46797338 61.07640993 32.47912643 66.17932256 32.49562955 71.28255391 C32.50949369 76.62623301 32.50301849 81.96989278 32.49949646 87.31358337 C32.49679566 96.28568961 32.51025964 105.25766195 32.53344727 114.22973633 C32.56006424 124.60048583 32.56180102 134.97101162 32.5500589 145.34178358 C32.53927796 155.32267178 32.54547017 165.30347911 32.55961418 175.28436089 C32.5653704 179.53024649 32.56529417 183.77607284 32.56054878 188.0219593 C32.5557747 193.02151348 32.56589866 198.02082282 32.58750343 203.02033043 C32.59306527 204.85451049 32.59354213 206.68871411 32.58855057 208.52289581 C32.58258904 211.02770651 32.59511913 213.53177079 32.61231995 216.03651428 C32.6063099 216.76132447 32.60029986 217.48613465 32.59410769 218.23290879 C32.69026024 225.93930892 36.60154886 232.60154886 42 238 C43.010625 238.165 44.02125 238.33 45.0625 238.5 C46.031875 238.665 47.00125 238.83 48 239 C48.33 239.66 48.66 240.32 49 241 C71.52183467 241.06999861 94.04365146 241.12294322 116.56557274 241.15543652 C127.02226771 241.17092294 137.47889521 241.19204626 147.93554688 241.22631836 C157.04673895 241.25616649 166.15788216 241.27556208 175.26912177 241.28226548 C180.09602442 241.28618555 184.92278727 241.29543484 189.74964523 241.31719017 C194.28859411 241.33748299 198.82734498 241.34384849 203.36633492 241.33932304 C205.03611513 241.34015149 206.70590166 241.34615993 208.37564278 241.35761642 C210.64792276 241.3724483 212.91944601 241.36898837 215.19174194 241.36076355 C216.46565985 241.36352893 217.73957775 241.36629431 219.05209923 241.36914349 C220.51131011 241.18641746 220.51131011 241.18641746 222 241 C224.52970955 237.20543568 224.29637331 234.16327401 224.29434204 229.76535034 C224.30169542 228.91567472 224.30904879 228.06599909 224.316625 227.19057572 C224.33871794 224.33259265 224.34638945 221.47475495 224.35400391 218.61669922 C224.36653191 216.57176754 224.3798254 214.52684044 224.39382935 212.48191833 C224.42866334 206.91763543 224.44975714 201.35338691 224.46624041 195.78902197 C224.47653906 192.31260042 224.48869066 188.83618955 224.50126266 185.35977554 C224.53937301 174.4829664 224.56783238 163.60618445 224.5844866 152.72932136 C224.60402819 140.17385075 224.65665482 127.61908565 224.73748839 115.06386364 C224.79781894 105.36012737 224.82742515 95.65659325 224.83404863 85.95267308 C224.83874932 80.15673805 224.8566628 74.36155643 224.90697098 68.5658226 C224.95355803 63.11051156 224.96199066 57.65644914 224.94144821 52.20099068 C224.94045779 50.20193006 224.95309098 48.20280775 224.9805603 46.20393562 C225.5002228 34.05386221 225.5002228 34.05386221 220.37875366 23.49002075 C218.21594163 21.55655237 218.21594163 21.55655237 216 20 C214.49789223 18.74757507 214.49789223 18.74757507 212.96543884 17.46984863 C207.13258184 14.58440073 199.91425724 15.44566 193.55297852 15.48242188 C191.97873285 15.4769968 190.40449226 15.46987198 188.83026123 15.46118164 C184.56775054 15.44298949 180.30562833 15.4499991 176.04311109 15.46269798 C171.57454231 15.4728488 167.10600604 15.46342637 162.63743591 15.45715332 C155.13314871 15.44988221 147.62901912 15.45944971 140.12475586 15.47851562 C131.46036848 15.50027544 122.79635776 15.49323739 114.13197953 15.47121 C106.68206079 15.4530312 99.23225515 15.45051002 91.78232139 15.46096468 C87.33762724 15.46718702 82.89310985 15.46807019 78.4484272 15.45481873 C74.26791978 15.44322494 70.08789565 15.45134989 65.90744019 15.47439575 C64.37726072 15.47966443 62.84704027 15.47820071 61.31687737 15.46934509 C53.35516212 15.42753213 46.79839083 15.42087551 40 20 Z " fill="#FBFBFB" transform="translate(0,0)"/>
<path d="M0 0 C0.65708281 -0.00679667 1.31416562 -0.01359334 1.99116004 -0.02059597 C4.1735217 -0.03945248 6.3553166 -0.03713882 8.53775024 -0.03465271 C10.11037409 -0.04363744 11.68299134 -0.05384732 13.25559998 -0.06518555 C17.51395404 -0.09161538 21.77212709 -0.09871598 26.03055525 -0.10063291 C28.69425416 -0.10276932 31.35790745 -0.10918149 34.021595 -0.11712456 C43.32339639 -0.14485355 52.62506905 -0.15713299 61.9269104 -0.1547699 C70.58343103 -0.15296766 79.23939076 -0.18462813 87.89576948 -0.23200089 C95.34060237 -0.27128454 102.78525232 -0.28731924 110.23018801 -0.28540367 C114.67113977 -0.28464045 119.11159258 -0.29309676 123.55244064 -0.32493782 C127.73062291 -0.35407983 131.90783257 -0.35415358 136.08605003 -0.33238792 C137.61421957 -0.32926257 139.14245073 -0.33626708 140.67051506 -0.3544693 C148.34605806 -0.43993657 154.74615623 -0.34747212 161.1035099 4.43066502 C161.76452894 5.0809212 162.42554798 5.73117739 163.1065979 6.40113831 C163.61769049 6.88485999 164.12878308 7.36858168 164.65536332 7.8669616 C168.36736362 11.69204096 169.79538252 14.42455392 169.89040995 19.76090217 C169.87429714 20.55167411 169.85818433 21.34244606 169.84158325 22.15718079 C169.85138977 23.44317087 169.85138977 23.44317087 169.86139441 24.75514054 C169.8759104 27.61540883 169.8476926 30.47361373 169.81948853 33.33375549 C169.82107091 35.38901111 169.8252674 37.44426613 169.83187866 39.49951172 C169.84213488 45.07172142 169.81510341 50.64319075 169.78082466 56.21528149 C169.75073446 62.04481375 169.75310039 67.87433679 169.75149536 73.70393372 C169.74411417 83.48903534 169.71419618 93.27385603 169.6690979 103.05885315 C169.61128572 115.62819815 169.59064478 128.19731734 169.5817337 140.76678085 C169.57378114 151.56608634 169.54878139 162.36534254 169.52103996 173.16461277 C169.51283638 176.64039307 169.50698812 180.11617162 169.50144958 183.59195709 C169.49167682 189.04536228 169.47129262 194.49862994 169.44257355 199.95196724 C169.43351487 201.95672171 169.42784722 203.96149469 169.42575836 205.96626854 C169.42227606 208.69532812 169.40653535 211.42404163 169.38748169 214.1530304 C169.38921465 214.95272523 169.39094762 215.75242006 169.3927331 216.57634807 C169.35265155 220.38340799 169.27031953 222.15555586 167.1065979 225.40113831 C164.15869713 225.77028179 164.15869713 225.77028179 160.29833984 225.76190186 C159.59017644 225.76446513 158.88201303 225.7670284 158.15239012 225.76966935 C155.76759466 225.77463046 153.38342535 225.75807673 150.99868774 225.74171448 C149.29398107 225.7408687 147.5892733 225.74134237 145.88456726 225.74304199 C141.24630885 225.74390532 136.60828157 225.72622516 131.97007704 225.70532012 C127.12673065 225.68660936 122.28337939 225.68480731 117.44000244 225.6812439 C108.26374062 225.67190692 99.08758559 225.64727084 89.91137087 225.61719543 C79.46655639 225.58370275 69.02173691 225.56717834 58.57688212 225.55210912 C37.0867277 225.52072269 15.59666952 225.46793016 -5.8934021 225.40113831 C-6.2234021 224.74113831 -6.5534021 224.08113831 -6.8934021 223.40113831 C-8.0071521 223.09176331 -9.1209021 222.78238831 -10.2684021 222.46363831 C-15.1483368 221.03331262 -17.01980029 218.69532044 -19.54046631 214.3782196 C-23.26612965 206.61745324 -22.59141235 198.17575965 -22.54037476 189.76783752 C-22.54715857 187.8877325 -22.55606598 186.00763412 -22.56692505 184.12754822 C-22.5896309 179.0449535 -22.58091894 173.96286882 -22.56502962 168.88026571 C-22.55232913 163.55087552 -22.56412189 158.22152761 -22.57196045 152.89213562 C-22.58104335 143.94632665 -22.5691031 135.00072444 -22.54525757 126.0549469 C-22.51803235 115.72213184 -22.52687619 105.38980989 -22.5543896 95.05700672 C-22.57709851 86.17178506 -22.5802725 77.28671161 -22.56719625 68.4014703 C-22.55941372 63.10054576 -22.5583276 57.79985286 -22.57487869 52.49894333 C-22.58935066 47.5164423 -22.57925176 42.53457577 -22.55040741 37.5521431 C-22.5438119 35.72686566 -22.54566794 33.90153457 -22.55672073 32.07627869 C-22.64921695 15.24654945 -22.64921695 15.24654945 -16.8934021 8.40113831 C-16.2127771 7.00895081 -16.2127771 7.00895081 -15.5184021 5.58863831 C-11.82557924 0.61753061 -5.80495466 0.02496272 0 0 Z M23.1065979 8.40113831 C23.1065979 65.49113831 23.1065979 122.58113831 23.1065979 181.40113831 C68.6465979 181.40113831 114.1865979 181.40113831 161.1065979 181.40113831 C161.1065979 127.61113831 161.1065979 73.82113831 161.1065979 18.40113831 C160.4465979 18.40113831 159.7865979 18.40113831 159.1065979 18.40113831 C159.0447229 17.84426331 158.9828479 17.28738831 158.9190979 16.71363831 C157.77043652 13.44437131 155.61838646 11.72454272 153.1065979 9.40113831 C152.7765979 9.07113831 152.4465979 8.74113831 152.1065979 8.40113831 C150.43635121 8.30499698 148.76201514 8.27926108 147.08900452 8.28088379 C146.00447463 8.27950629 144.91994474 8.2781288 143.80255032 8.27670956 C142.59762967 8.28030766 141.39270903 8.28390577 140.15127563 8.28761292 C138.23308691 8.28743211 138.23308691 8.28743211 136.27614689 8.28724766 C132.8058108 8.28702118 129.33550895 8.292832 125.86518097 8.29985809 C122.61301261 8.305538 119.36084582 8.30582039 116.1086731 8.30653381 C106.58714347 8.3117886 97.06562026 8.32574965 87.5440979 8.33863831 C66.2797229 8.35926331 45.0153479 8.37988831 23.1065979 8.40113831 Z " fill="#161616" transform="translate(54.893402099609375,15.598861694335938)"/>
<path d="M0 0 C0 56.43 0 112.86 0 171 C-9.9 171.495 -9.9 171.495 -20 172 C-21.65 172.99 -23.3 173.98 -25 175 C-25.99 175 -26.98 175 -28 175 C-28.11669722 152.88662944 -28.20492139 130.77330951 -28.25906086 108.65969372 C-28.28486468 98.39240933 -28.32005674 88.12531604 -28.37719727 77.8581543 C-28.42696564 68.91139089 -28.45927516 59.96476584 -28.47044247 51.01786786 C-28.4769724 46.27857009 -28.49236446 41.53966819 -28.52865028 36.80049706 C-28.56250621 32.34270624 -28.57307417 27.8854756 -28.56553841 23.42756844 C-28.56691764 21.78882684 -28.57691227 20.15006715 -28.59602737 18.51143646 C-28.62080493 16.27846963 -28.61496397 14.04763423 -28.60127258 11.81462097 C-28.60588155 10.56374789 -28.61049051 9.31287481 -28.61523914 8.02409649 C-28 5 -28 5 -25.71242046 3.19908619 C-24.81732171 2.80338775 -23.92222296 2.4076893 -23 2 C-19 0 -19 0 0 0 Z " fill="#FAFAFA" transform="translate(70,25)"/>
<path d="M0 0 C0.67568356 -0.00256327 1.35136712 -0.00512655 2.04752594 -0.0077675 C4.2924365 -0.01267556 6.5366617 0.00373712 8.7815094 0.02018738 C10.39828475 0.0210343 12.01506126 0.02055724 13.63183594 0.01885986 C18.00741674 0.01800102 22.38274958 0.03560873 26.75827289 0.05658174 C31.33599758 0.07536709 35.9137283 0.07710044 40.4914856 0.08065796 C49.15405275 0.08997296 57.81650599 0.11457938 66.47902304 0.14470643 C76.34355235 0.17826738 86.20808716 0.19474071 96.07265937 0.20979273 C116.35921954 0.24112942 136.64567066 0.2944854 156.93214417 0.36076355 C156.93214417 9.27076355 156.93214417 18.18076355 156.93214417 27.36076355 C136.22618082 27.40710242 115.52023 27.44277379 94.8142252 27.46438789 C85.19962357 27.47469136 75.58505479 27.48873393 65.97047424 27.51164246 C57.58838708 27.53160478 49.20632372 27.54448674 40.82421345 27.54894054 C36.38779976 27.5515431 31.95145415 27.5576409 27.51506233 27.57222366 C23.33479775 27.58585249 19.15462894 27.58997551 14.97434425 27.58697891 C13.44457732 27.58752671 11.914807 27.59147247 10.38505936 27.5991745 C-9.54979635 27.69457478 -9.54979635 27.69457478 -14.63035583 22.98576355 C-16.88615487 17.29722686 -17.07849883 11.12035549 -15.48191833 5.18107605 C-11.80065948 0.44221797 -5.57438011 -0.01281467 0 0 Z " fill="#FDFDFD" transform="translate(58.06785583496094,204.6392364501953)"/>
<path d="M0 0 C0.14436942 1.8385594 0.22011801 3.6825468 0.26879883 5.52612305 C0.30165482 6.70792648 0.3345108 7.88972992 0.36836243 9.10734558 C0.41225349 11.0400103 0.41225349 11.0400103 0.45703125 13.01171875 C0.50243294 14.98589531 0.50243294 14.98589531 0.54875183 16.99995422 C0.61085751 19.79343539 0.66774653 22.58697943 0.72241211 25.38061523 C0.79369989 28.95097872 0.88870566 32.52029439 0.98918629 36.08993816 C1.06203838 38.83932415 1.11656545 41.5888618 1.16626549 44.33875465 C1.20637235 46.29212768 1.26620762 48.24506354 1.32637024 50.19792175 C1.48248125 61.13392332 1.48248125 61.13392332 -3 66 C-3.474375 66.5775 -3.94875 67.155 -4.4375 67.75 C-10.04661559 72.23729247 -17.22806525 71.54653698 -24 71 C-28.77436241 69.38012704 -31.72878291 66.81641994 -35 63 C-38.10333879 56.65275307 -38.08946696 49.26840087 -35.875 42.625 C-32.872018 38.4208252 -29.98961355 34.66320452 -25 33 C-22.42734182 32.92970879 -19.88358569 32.90629168 -17.3125 32.9375 C-16.2596582 32.94426758 -16.2596582 32.94426758 -15.18554688 32.95117188 C-13.45699462 32.96293073 -11.72848635 32.98086546 -10 33 C-9.67 29.04 -9.34 25.08 -9 21 C-10.051875 21.433125 -11.10375 21.86625 -12.1875 22.3125 C-16.99907429 24.13402455 -21.92430558 25.18874502 -26.94921875 26.25390625 C-29.90340464 26.88483692 -29.90340464 26.88483692 -32.17114258 27.94506836 C-35.82566005 29.30790343 -39.4797805 29.95367469 -43.3125 30.625 C-44.05306641 30.7590625 -44.79363281 30.893125 -45.55664062 31.03125 C-47.37025044 31.35886984 -49.18501524 31.68008494 -51 32 C-50.97905273 33.18029785 -50.95810547 34.3605957 -50.93652344 35.57666016 C-50.86392231 39.97106717 -50.81812729 44.36542154 -50.78027344 48.76025391 C-50.76020371 50.65943325 -50.73294149 52.55855115 -50.69824219 54.45751953 C-50.64951891 57.19318839 -50.62698493 59.92803771 -50.609375 62.6640625 C-50.58872986 63.50804596 -50.56808472 64.35202942 -50.54681396 65.22158813 C-50.54441591 71.57443684 -52.3917151 74.82469664 -56.4375 79.75 C-62.24017566 84.39214053 -70.00601194 83.67392129 -77 83 C-79.75694163 82.00770561 -80.81064272 81.07412795 -83 79 C-83.7425 78.34 -84.485 77.68 -85.25 77 C-89.57907935 72.05248075 -89.36733757 67.51203676 -89.24609375 61.12890625 C-88.75741652 54.91572436 -85.79032771 51.45897295 -81.59765625 47.19921875 C-77.80830166 44.35488658 -73.3024458 44.89534772 -68.75 44.9375 C-66.85507813 44.95103516 -66.85507813 44.95103516 -64.921875 44.96484375 C-63.95765625 44.97644531 -62.9934375 44.98804688 -62 45 C-61.98018066 44.04633545 -61.96036133 43.0926709 -61.93994141 42.11010742 C-61.86384986 38.57077701 -61.77513839 35.03185583 -61.68261719 31.49291992 C-61.64434202 29.96142661 -61.60948651 28.42984385 -61.578125 26.89819336 C-61.53244193 24.6961267 -61.47445463 22.49467504 -61.4140625 20.29296875 C-61.39673569 19.26625313 -61.39673569 19.26625313 -61.37905884 18.21879578 C-61.26726256 14.61539163 -61.05605447 13.0840817 -59 10 C-52.51654353 6.66003758 -44.94974125 5.98052681 -37.8125 5.1875 C-31.16383395 4.36141324 -25.46569851 2.50289513 -19.234375 0.11328125 C-14.29578462 -1.58659587 -4.32315312 -4.32315312 0 0 Z " fill="#101010" transform="translate(183,47)"/>
<path d="M0 0 C21.2025 -0.0825 42.405 -0.165 64.25 -0.25 C74.29743652 -0.30462402 74.29743652 -0.30462402 84.54785156 -0.36035156 C92.71826172 -0.37841797 92.71826172 -0.37841797 96.54144287 -0.3817749 C99.21573305 -0.38792367 101.88927207 -0.40051342 104.56341553 -0.42230225 C108.61045509 -0.45484104 112.65693163 -0.45562702 116.70410156 -0.45410156 C118.49529104 -0.47569021 118.49529104 -0.47569021 120.32266617 -0.497715 C121.41132854 -0.49220501 122.49999092 -0.48669502 123.62164307 -0.48101807 C124.56924625 -0.48470524 125.51684944 -0.48839241 126.49316788 -0.49219131 C129.71215335 0.13982416 130.91943756 1.53669562 133 4 C131.76705704 3.67657623 130.53411407 3.35315247 129.2638092 3.01992798 C123.43008831 1.73188533 117.73290873 1.69279753 111.77905273 1.68115234 C110.56868127 1.67099909 109.3583098 1.66084583 108.11126041 1.6503849 C104.21870763 1.61990894 100.32622739 1.6026384 96.43359375 1.5859375 C94.02021668 1.56899013 91.60684556 1.55117208 89.19348145 1.5324707 C80.27488923 1.46943979 71.35618455 1.42322826 62.4375 1.375 C32.5209375 1.189375 32.5209375 1.189375 2 1 C2 57.1 2 113.2 2 171 C46.22 171 90.44 171 136 171 C136 117.87 136 64.74 136 10 C136.66 10 137.32 10 138 10 C138 63.79 138 117.58 138 173 C92.46 173 46.92 173 0 173 C0 115.91 0 58.82 0 0 Z " fill="#9F9F9F" transform="translate(78,24)"/>
<path d="M0 0 C0.87168823 -0.0049649 1.74337646 -0.00992981 2.64147949 -0.01504517 C5.53329245 -0.02968412 8.42505056 -0.03647155 11.31689453 -0.04199219 C13.32227582 -0.04774206 15.32765709 -0.05349981 17.33303833 -0.05926514 C21.5413641 -0.06977996 25.74967074 -0.07561952 29.95800781 -0.07910156 C35.3541747 -0.08458836 40.75008951 -0.10861839 46.14617729 -0.13707352 C50.28969057 -0.15568379 54.43314294 -0.16090463 58.57669449 -0.16243744 C60.56623844 -0.16546796 62.55578122 -0.17350989 64.54528427 -0.18662262 C67.32726043 -0.20365001 70.10861808 -0.20181102 72.890625 -0.1953125 C73.71466827 -0.20452728 74.53871155 -0.21374207 75.38772583 -0.22323608 C78.71087366 -0.19888084 81.14094375 -0.07339035 84.09402466 1.52325439 C85.57470703 3.16113281 85.57470703 3.16113281 85.94970703 5.72363281 C85.57470703 8.16113281 85.57470703 8.16113281 83.57470703 10.16113281 C80.59716098 10.35473849 77.71294057 10.42328572 74.73461914 10.40405273 C73.36133705 10.40690025 73.36133705 10.40690025 71.96031189 10.4098053 C68.92413866 10.41352003 65.88820287 10.40279972 62.85205078 10.39160156 C60.74980192 10.39041014 58.64755253 10.38995652 56.54530334 10.39021301 C52.13604407 10.38864699 47.72686584 10.38034765 43.31762695 10.36694336 C37.65221189 10.34994294 31.98688591 10.34612924 26.32144833 10.34688854 C21.97989545 10.34661726 17.63836223 10.34114293 13.29681587 10.3338871 C11.20711987 10.33069442 9.11742163 10.32873164 7.02772331 10.32799339 C4.11357665 10.32583674 1.19952649 10.31710753 -1.71459961 10.30639648 C-2.58683167 10.30684967 -3.45906372 10.30730286 -4.35772705 10.30776978 C-10.31081887 10.27560691 -10.31081887 10.27560691 -11.42529297 9.16113281 C-11.37451172 7.34863281 -11.37451172 7.34863281 -11.11279297 5.16113281 C-11.03416016 4.43925781 -10.95552734 3.71738281 -10.87451172 2.97363281 C-10.72626953 2.37550781 -10.57802734 1.77738281 -10.42529297 1.16113281 C-7.16844853 -0.46728941 -3.57940744 0.00483192 0 0 Z " fill="#656565" transform="translate(102.42529296875,157.8388671875)"/>
<path d="M0 0 C1.06992187 0.01289063 2.13984375 0.02578125 3.2421875 0.0390625 C4.35335937 0.07257812 5.46453125 0.10609375 6.609375 0.140625 C7.73601563 0.15867187 8.86265625 0.17671875 10.0234375 0.1953125 C12.80294396 0.24242278 15.5807284 0.30819139 18.359375 0.390625 C18.38270162 22.92975076 18.40035301 45.46887454 18.41118717 68.00800991 C18.41635064 78.47254781 18.42339429 88.93707823 18.43481445 99.40161133 C18.44475976 108.51901935 18.45122806 117.63642196 18.45346349 126.75383526 C18.45477086 131.58456376 18.45785836 136.41527675 18.46510506 141.24600029 C18.47186285 145.78736187 18.47399246 150.32870147 18.47248268 154.8700676 C18.47275912 156.54187069 18.47476566 158.21367448 18.47858047 159.88547325 C18.48351398 162.15788353 18.48237458 164.43020946 18.47962952 166.70262146 C18.48055131 167.97746116 18.4814731 169.25230085 18.48242283 170.56577206 C18.359375 173.390625 18.359375 173.390625 17.359375 174.390625 C15.79606633 174.51161427 14.22782635 174.57021197 12.66015625 174.6015625 C11.69787109 174.62992188 10.73558594 174.65828125 9.74414062 174.6875 C7.71566753 174.73908228 5.68699795 174.78349704 3.65820312 174.8203125 C-1.94441505 174.99923843 -5.68839176 175.5455632 -10.640625 178.390625 C-11.960625 178.390625 -13.280625 178.390625 -14.640625 178.390625 C-14.640625 122.950625 -14.640625 67.510625 -14.640625 10.390625 C-13.980625 10.390625 -13.320625 10.390625 -12.640625 10.390625 C-12.640625 65.170625 -12.640625 119.950625 -12.640625 176.390625 C-8.680625 174.410625 -8.680625 174.410625 -4.640625 172.390625 C1.959375 172.390625 8.559375 172.390625 15.359375 172.390625 C15.359375 115.960625 15.359375 59.530625 15.359375 1.390625 C-1.68493883 1.44325294 -1.68493883 1.44325294 -9.640625 4.390625 C-6.54947167 0.68380628 -4.80103767 -0.10214974 0 0 Z " fill="#252525" transform="translate(54.640625,23.609375)"/>
<path d="M0 0 C1.30994179 -0.00744736 1.30994179 -0.00744736 2.64634705 -0.01504517 C5.54296651 -0.02968258 8.43953123 -0.03647086 11.33618164 -0.04199219 C13.34395856 -0.04774165 15.35173546 -0.05349941 17.35951233 -0.05926514 C21.57203427 -0.06977915 25.78453709 -0.07561942 29.99707031 -0.07910156 C35.40230342 -0.0845919 40.80728532 -0.10862977 46.21243954 -0.13707352 C50.36020147 -0.15566922 54.50790248 -0.16090382 58.65570259 -0.16243744 C60.64886412 -0.16547065 62.64202441 -0.17352156 64.63514519 -0.18662262 C67.41972019 -0.20362165 70.20367584 -0.20181818 72.98828125 -0.1953125 C73.8159198 -0.20452728 74.64355835 -0.21374207 75.49627686 -0.22323608 C81.11441749 -0.18198628 81.11441749 -0.18198628 83.27846622 1.4887886 C85.20005004 3.99864543 84.82486174 6.10185856 84.55883789 9.16113281 C82.69196213 11.02800858 80.01602341 10.2811978 77.53251648 10.28555298 C76.66649307 10.2819577 75.80046967 10.27836243 74.90820312 10.2746582 C73.54736099 10.27487724 73.54736099 10.27487724 72.1590271 10.27510071 C69.14513804 10.27440122 66.13130997 10.26660716 63.11743164 10.25878906 C61.03377822 10.25692501 58.95012436 10.25550105 56.86647034 10.25450134 C51.37060343 10.25067515 45.87476276 10.24084401 40.37890625 10.22979736 C34.77547562 10.21958541 29.17204076 10.21500419 23.56860352 10.20996094 C12.56533675 10.19922183 1.5620895 10.1821442 -9.44116211 10.16113281 C-10.91948471 7.20448762 -10.50148994 4.41883544 -10.44116211 1.16113281 C-7.18047076 -0.46921286 -3.58374225 0.00482861 0 0 Z " fill="#121211" transform="translate(102.441162109375,173.8388671875)"/>
<path d="M0 0 C54.78 0 109.56 0 166 0 C166 9.57 166 19.14 166 29 C165 30 165 30 162.30008602 30.12304783 C161.08424108 30.12212604 159.86839613 30.12120424 158.6157074 30.12025452 C157.94106683 30.12110894 157.26642627 30.12196337 156.57134205 30.12284368 C154.29419838 30.12450039 152.0171272 30.11897404 149.73999023 30.11352539 C148.11424766 30.11324353 146.48850495 30.11340122 144.86276245 30.1139679 C140.43526587 30.11425593 136.00779613 30.10835827 131.58030581 30.10139394 C126.95849158 30.09516136 122.3366768 30.09455668 117.71485901 30.09336853 C108.95651763 30.09025493 100.19818867 30.08204115 91.43985277 30.07201904 C81.47145987 30.0608588 71.50306639 30.05534768 61.5346688 30.05032361 C41.02310559 30.03985856 20.51155358 30.02225857 0 30 C0 29.34 0 28.68 0 28 C-1.32 27.67 -2.64 27.34 -4 27 C-1.29344817 25.64672409 0.0518689 26.39565011 3 27 C5.22358525 27.09901479 7.44973619 27.14599855 9.67549133 27.15821838 C10.66195209 27.16562535 10.66195209 27.16562535 11.66834134 27.17318195 C13.8639341 27.18849541 16.05949776 27.19690079 18.25512695 27.20532227 C19.83220168 27.21490563 21.40927386 27.22491598 22.98634338 27.23532104 C27.26275412 27.26232647 31.53917584 27.28335962 35.81562448 27.30332303 C40.28662375 27.32520952 44.75758933 27.35258517 49.2285614 27.37937927 C57.69279262 27.42927016 66.15704258 27.47422236 74.62131041 27.51740164 C84.25850829 27.56680482 93.89567235 27.62171152 103.53283751 27.67708123 C123.35519367 27.79084595 143.17758265 27.89750177 163 28 C163 19.09 163 10.18 163 1 C109.21 1 55.42 1 0 1 C0 0.67 0 0.34 0 0 Z " fill="#6B6B6A" transform="translate(52,204)"/>
<path d="M0 0 C2.46242046 1.08120441 2.46242046 1.08120441 5 3 C5.61523914 5.97724438 5.61523914 5.97724438 5.60127258 9.70072937 C5.60768077 10.72750415 5.60768077 10.72750415 5.61421841 11.77502185 C5.62247024 14.07422676 5.59493111 16.37161687 5.56762695 18.6706543 C5.56621694 20.31639564 5.56700755 21.96214013 5.56983948 23.60787964 C5.57127687 28.0809741 5.54183519 32.55340119 5.50696969 37.02634025 C5.4757598 41.69882579 5.4727797 46.37132584 5.46684265 51.04389954 C5.45128838 59.89439778 5.41023856 68.74458802 5.3600952 77.5949505 C5.30425093 87.66975464 5.27672763 97.74457332 5.25161803 107.81949365 C5.19932404 128.54650115 5.11135105 149.27323119 5 170 C2.39744739 171.3012763 0.51180181 171.12293904 -2.40359497 171.12025452 C-3.55066925 171.12162918 -4.69774353 171.12300385 -5.87957764 171.12442017 C-7.14408752 171.12082489 -8.40859741 171.11722961 -9.71142578 171.11352539 C-11.0516052 171.11324343 -12.39178478 171.11340143 -13.73196411 171.1139679 C-17.37637101 171.11425551 -21.02074517 171.10836451 -24.66514444 171.10139394 C-28.47149395 171.09515451 -32.27784416 171.09455613 -36.084198 171.09336853 C-43.29482959 171.09025696 -50.50544608 171.0820459 -57.71607101 171.07201904 C-65.92393979 171.06085251 -74.13180929 171.05534609 -82.33968377 171.05032361 C-99.2264646 171.03986316 -116.1132307 171.02226707 -133 171 C-133 170.34 -133 169.68 -133 169 C-87.79 169 -42.58 169 4 169 C4 115.21 4 61.42 4 6 C3.34 6 2.68 6 2 6 C1.01 3.03 1.01 3.03 0 0 Z " fill="#181818" transform="translate(212,28)"/>
<path d="M0 0 C0.67568356 -0.00256327 1.35136712 -0.00512655 2.04752594 -0.0077675 C4.2924365 -0.01267556 6.5366617 0.00373712 8.7815094 0.02018738 C10.39828475 0.0210343 12.01506126 0.02055724 13.63183594 0.01885986 C18.00741674 0.01800102 22.38274958 0.03560873 26.75827289 0.05658174 C31.33599758 0.07536709 35.9137283 0.07710044 40.4914856 0.08065796 C49.15405275 0.08997296 57.81650599 0.11457938 66.47902304 0.14470643 C76.34355235 0.17826738 86.20808716 0.19474071 96.07265937 0.20979273 C116.35921954 0.24112942 136.64567066 0.2944854 156.93214417 0.36076355 C156.93214417 9.27076355 156.93214417 18.18076355 156.93214417 27.36076355 C104.13214417 27.36076355 51.33214417 27.36076355 -3.06785583 27.36076355 C-3.06785583 27.03076355 -3.06785583 26.70076355 -3.06785583 26.36076355 C49.07214417 26.36076355 101.21214417 26.36076355 154.93214417 26.36076355 C154.93214417 18.11076355 154.93214417 9.86076355 154.93214417 1.36076355 C134.02661718 1.4219011 113.121215 1.49875702 92.21582508 1.59647846 C82.50921527 1.64145537 72.8026423 1.68086566 63.09596252 1.7071991 C54.63620292 1.73016383 46.17655973 1.76354477 37.71689242 1.80946511 C33.23702334 1.83341792 28.7572697 1.8521332 24.27733803 1.85837746 C20.06086208 1.86441902 15.84468161 1.8843851 11.62831497 1.91503906 C10.08076846 1.92383421 8.53318336 1.92753881 6.98561287 1.92577171 C4.87193311 1.92412021 2.75915539 1.94080607 0.64559937 1.96203613 C-0.53706103 1.9666451 -1.71972143 1.97125406 -2.93822002 1.97600269 C-6.37812839 2.3989088 -8.21957718 3.4557031 -11.06785583 5.36076355 C-11.72785583 5.36076355 -12.38785583 5.36076355 -13.06785583 5.36076355 C-13.72785583 9.65076355 -14.38785583 13.94076355 -15.06785583 18.36076355 C-14.40785583 18.36076355 -13.74785583 18.36076355 -13.06785583 18.36076355 C-12.75848083 19.14451355 -12.44910583 19.92826355 -12.13035583 20.73576355 C-11.13910545 23.28406483 -11.13910545 23.28406483 -10.06785583 25.36076355 C-12.3994549 24.42812392 -13.78952543 23.78507144 -15.18504333 21.65763855 C-16.29010447 18.78252374 -16.33323347 16.43628988 -16.31785583 13.36076355 C-16.32301208 12.32951355 -16.32816833 11.29826355 -16.33348083 10.23576355 C-15.91594682 5.71657184 -15.91594682 5.71657184 -14.06785583 3.36076355 C-9.16036163 0.88024161 -5.57501478 -0.01281613 0 0 Z " fill="#D3D3D3" transform="translate(58.06785583496094,204.6392364501953)"/>
<path d="M0 0 C2.80434884 0.73305167 3.9178655 1.3389386 5.7578125 3.546875 C8.26460222 8.06460593 8.57039172 12.6545284 7.5703125 17.671875 C5.8203125 20.796875 5.8203125 20.796875 2.5703125 22.671875 C-2.13121525 23.50957815 -7.00736591 24.00315092 -11.3203125 21.6328125 C-13.97235349 18.90456344 -14.80960775 15.90022343 -15.1171875 12.234375 C-14.82350015 7.90248663 -13.5218187 5.03741672 -10.4765625 1.94140625 C-7.05149389 -0.18292065 -3.95633398 -0.28028524 0 0 Z " fill="#F4F4F4" transform="translate(168.4296875,87.328125)"/>
<path d="M0 0 C3.48540064 2.42428978 4.70652722 5.42502939 5.46875 9.515625 C5.72893949 13.86078951 5.38851659 16.35247235 3.125 20.125 C-1.33024165 22.79814499 -4.93864415 23.07671701 -10 22 C-13.16155993 20.5593601 -15.19656451 18.98821673 -17 16 C-17.55439118 12.58210208 -17.42666043 9.42682819 -17 6 C-16.34 6 -15.68 6 -15 6 C-15 5.34 -15 4.68 -15 4 C-10.84442817 -0.70964807 -5.92542492 -1.40850264 0 0 Z " fill="#F1F1F1" transform="translate(119,100)"/>
<path d="M0 0 C1.30994179 -0.00744736 1.30994179 -0.00744736 2.64634705 -0.01504517 C5.54296651 -0.02968258 8.43953123 -0.03647086 11.33618164 -0.04199219 C13.34395856 -0.04774165 15.35173546 -0.05349941 17.35951233 -0.05926514 C21.57203427 -0.06977915 25.78453709 -0.07561942 29.99707031 -0.07910156 C35.40230342 -0.0845919 40.80728532 -0.10862977 46.21243954 -0.13707352 C50.36020147 -0.15566922 54.50790248 -0.16090382 58.65570259 -0.16243744 C60.64886412 -0.16547065 62.64202441 -0.17352156 64.63514519 -0.18662262 C67.41972019 -0.20362165 70.20367584 -0.20181818 72.98828125 -0.1953125 C73.8159198 -0.20452728 74.64355835 -0.21374207 75.49627686 -0.22323608 C81.11441749 -0.18198628 81.11441749 -0.18198628 83.27846622 1.4887886 C85.20005004 3.99864543 84.82486174 6.10185856 84.55883789 9.16113281 C82.69196213 11.02800858 80.01602341 10.2811978 77.53251648 10.28555298 C76.66649307 10.2819577 75.80046967 10.27836243 74.90820312 10.2746582 C73.54736099 10.27487724 73.54736099 10.27487724 72.1590271 10.27510071 C69.14513804 10.27440122 66.13130997 10.26660716 63.11743164 10.25878906 C61.03377822 10.25692501 58.95012436 10.25550105 56.86647034 10.25450134 C51.37060343 10.25067515 45.87476276 10.24084401 40.37890625 10.22979736 C34.77547562 10.21958541 29.17204076 10.21500419 23.56860352 10.20996094 C12.56533675 10.19922183 1.5620895 10.1821442 -9.44116211 10.16113281 C-9.44116211 9.83113281 -9.44116211 9.50113281 -9.44116211 9.16113281 C20.91883789 8.83113281 51.27883789 8.50113281 82.55883789 8.16113281 C82.55883789 6.84113281 82.55883789 5.52113281 82.55883789 4.16113281 C52.19883789 3.83113281 21.83883789 3.50113281 -9.44116211 3.16113281 C-9.44116211 4.81113281 -9.44116211 6.46113281 -9.44116211 8.16113281 C-9.77116211 8.16113281 -10.10116211 8.16113281 -10.44116211 8.16113281 C-10.44116211 5.85113281 -10.44116211 3.54113281 -10.44116211 1.16113281 C-7.18047076 -0.46921286 -3.58374225 0.00482861 0 0 Z " fill="#808080" transform="translate(102.441162109375,173.8388671875)"/>
<path d="M0 0 C0.66 0 1.32 0 2 0 C2 54.78 2 109.56 2 166 C5.96 164.02 5.96 164.02 10 162 C12.74414062 161.54589844 12.74414062 161.54589844 15.15625 161.609375 C16.0328125 161.62226563 16.909375 161.63515625 17.8125 161.6484375 C19.1428125 161.69871094 19.1428125 161.69871094 20.5 161.75 C21.4178125 161.76804688 22.335625 161.78609375 23.28125 161.8046875 C25.52196092 161.85136898 27.76039799 161.91681478 30 162 C30 162.33 30 162.66 30 163 C28.06447266 163.03867187 28.06447266 163.03867187 26.08984375 163.078125 C24.37236339 163.13443583 22.65491678 163.19178248 20.9375 163.25 C20.08994141 163.26417969 19.24238281 163.27835938 18.36914062 163.29296875 C12.37569442 163.52437594 9.05966746 164.84165577 4 168 C2.68 168 1.36 168 0 168 C0 112.56 0 57.12 0 0 Z " fill="#686868" transform="translate(40,34)"/>
<path d="M0 0 C30.36 0 60.72 0 92 0 C92 1.32 92 2.64 92 4 C61.64 4 31.28 4 0 4 C0 2.68 0 1.36 0 0 Z " fill="#040404" transform="translate(93,161)"/>
<path d="M0 0 C-9.92041854 4.08322743 -19.77564077 7.11067617 -30.25463867 9.43823242 C-31.11806885 9.63006104 -31.98149902 9.82188965 -32.87109375 10.01953125 C-33.64380615 10.18557861 -34.41651855 10.35162598 -35.21264648 10.52270508 C-37.0096998 10.84278827 -37.0096998 10.84278827 -38 12 C-39.99958364 12.04080783 -42.00045254 12.04254356 -44 12 C-44 12.66 -44 13.32 -44 14 C-44.66 14 -45.32 14 -46 14 C-46 25.55 -46 37.1 -46 49 C-47.65 49 -49.3 49 -51 49 C-51 48.34 -51 47.68 -51 47 C-61.21864597 46.32376608 -67.27544145 48.24101126 -75 55 C-73.43903239 51.16853404 -71.08588695 48.71851946 -68 46 C-64.34541793 44.63161767 -60.60739571 44.90178337 -56.75 44.9375 C-54.85507813 44.95103516 -54.85507813 44.95103516 -52.921875 44.96484375 C-51.95765625 44.97644531 -50.9934375 44.98804688 -50 45 C-49.98018066 44.04633545 -49.96036133 43.0926709 -49.93994141 42.11010742 C-49.86384986 38.57077701 -49.77513839 35.03185583 -49.68261719 31.49291992 C-49.64434202 29.96142661 -49.60948651 28.42984385 -49.578125 26.89819336 C-49.53244193 24.6961267 -49.47445463 22.49467504 -49.4140625 20.29296875 C-49.39673569 19.26625313 -49.39673569 19.26625313 -49.37905884 18.21879578 C-49.26726256 14.61539163 -49.05605447 13.0840817 -47 10 C-40.51654353 6.66003758 -32.94974125 5.98052681 -25.8125 5.1875 C-19.01166962 4.35110755 -13.25150961 2.5159007 -6.92578125 -0.07421875 C-3.99457675 -1.00171603 -2.80133493 -1.12462351 0 0 Z " fill="#454545" transform="translate(171,47)"/>
<path d="M0 0 C0 1.32 0 2.64 0 4 C-2.80081117 5.52425098 -5.31236413 6.39338784 -8.4375 7 C-10.85362185 7.47061852 -12.97680765 7.99035327 -15.25390625 8.9375 C-19.62835862 10.63003349 -24.18993909 11.48931296 -28.76171875 12.5 C-32.68899482 13.38971918 -36.2574037 14.4918928 -40 16 C-42.3125 15.625 -42.3125 15.625 -44 15 C-43.4375 13.1875 -43.4375 13.1875 -42 11 C-36.60129546 8.3183368 -31.09662085 6.88254216 -25.25 5.5 C-23.47370935 5.07003775 -21.69766532 4.63905529 -19.921875 4.20703125 C-18.65053711 3.89886475 -18.65053711 3.89886475 -17.35351562 3.58447266 C-13.57286654 2.64558532 -9.83080486 1.57853195 -6.09375 0.48046875 C-4 0 -4 0 0 0 Z " fill="#D6D6D6" transform="translate(175,54)"/>
<path d="M0 0 C7.26 0 14.52 0 22 0 C22 56.76 22 113.52 22 172 C21.67 172 21.34 172 21 172 C21 115.57 21 59.14 21 1 C3.95568617 1.05262794 3.95568617 1.05262794 -4 4 C-2.68 2.68 -1.36 1.36 0 0 Z " fill="#7A7A7A" transform="translate(49,24)"/>
<path d="M0 0 C4 1.33333333 8 2.66666667 12 4 C12 4.66 12 5.32 12 6 C68.43 6 124.86 6 183 6 C183 6.33 183 6.66 183 7 C160.71217382 7.07011325 138.42436585 7.12299956 116.13645172 7.15543652 C105.78754487 7.17089857 95.43870659 7.19197548 85.08984375 7.22631836 C76.06868744 7.25624093 67.0475808 7.27557982 58.02637625 7.28226548 C53.25070134 7.28617289 48.47516851 7.29534212 43.69953918 7.31719017 C39.20160994 7.33760043 34.70388088 7.34382462 30.20590973 7.33932304 C28.5580003 7.34014621 26.91008395 7.34608479 25.26221466 7.35761642 C9.60333082 7.46179154 9.60333082 7.46179154 3 4 C1 1.8125 1 1.8125 0 0 Z " fill="#2B2B2B" transform="translate(38,233)"/>
<path d="M0 0 C2.475 0.495 2.475 0.495 5 1 C5 1.66 5 2.32 5 3 C62.09 3 119.18 3 178 3 C178 3.33 178 3.66 178 4 C155.38234067 4.09338117 132.76471307 4.16394871 110.14690018 4.20724869 C99.645394 4.2278867 89.1440075 4.25603098 78.64257812 4.30175781 C69.49108068 4.34158763 60.33966989 4.36742379 51.18808818 4.37635398 C46.34095329 4.38157527 41.49406634 4.39387287 36.6470108 4.42292023 C32.08667528 4.45002844 27.52669033 4.45845433 22.96628189 4.45243073 C21.29088309 4.45353303 19.61547282 4.46151432 17.94014359 4.4768219 C15.65523951 4.49667873 13.37166479 4.49195602 11.08673096 4.48101807 C9.16755796 4.48654882 9.16755796 4.48654882 7.2096138 4.49219131 C3.47365043 3.91928478 2.30641097 2.9179521 0 0 Z " fill="#CCCCCB" transform="translate(44,238)"/>
<path d="M0 0 C2.46242046 1.0859499 2.46242046 1.0859499 5 3 C5.61523914 5.94600964 5.61523914 5.94600964 5.60127258 9.62480164 C5.60554471 10.30115105 5.60981683 10.97750046 5.61421841 11.67434531 C5.62246968 13.94591932 5.59493227 16.21565609 5.56762695 18.48706055 C5.56621692 20.1130977 5.56700758 21.73913804 5.56983948 23.36517334 C5.57127682 27.78455387 5.541836 32.20325885 5.50696969 36.62248206 C5.47575894 41.23891275 5.47277963 45.85535813 5.46684265 50.47187805 C5.45128863 59.21613019 5.41023916 67.96007058 5.3600952 76.70418531 C5.30425014 86.65807223 5.27672743 96.61197388 5.25161803 106.56597841 C5.19932461 127.04415975 5.11135212 147.52206026 5 168 C4.67 168 4.34 168 4 168 C4 114.54 4 61.08 4 6 C3.34 6 2.68 6 2 6 C1.34 4.02 0.68 2.04 0 0 Z " fill="#363636" transform="translate(212,28)"/>
<path d="M0 0 C54.78 0 109.56 0 166 0 C166 0.33 166 0.66 166 1 C165.16547239 1.00238835 164.33094479 1.00477671 163.47112846 1.00723743 C143.16506631 1.06637386 122.85912298 1.14191529 102.55319023 1.23571491 C92.73338774 1.28068014 82.91362157 1.32009315 73.09375 1.34643555 C64.53473222 1.36940971 55.97582933 1.40280126 47.41690266 1.44870156 C42.88502301 1.4726416 38.35325721 1.49136527 33.82131577 1.49761391 C29.55477126 1.50366122 25.28851806 1.52364824 21.02208138 1.55427551 C19.45721649 1.56306141 17.89231355 1.56677717 16.327425 1.56500816 C14.18782665 1.56335331 12.04911413 1.5800712 9.90963745 1.60127258 C8.71315016 1.60588155 7.51666286 1.61049051 6.28391838 1.61523914 C2.630337 2.04331163 0.17087342 3.17872992 -3 5 C-2.67 4.01 -2.34 3.02 -2 2 C-1.34 2 -0.68 2 0 2 C0 1.34 0 0.68 0 0 Z " fill="#323232" transform="translate(49,203)"/>
<path d="M0 0 C16.62000672 -0.09341723 33.23992836 -0.16396626 49.86013412 -0.20724869 C57.57709272 -0.22787913 65.29388825 -0.25600873 73.01074219 -0.30175781 C79.73630514 -0.34161108 86.46175001 -0.36742931 93.18742776 -0.37635398 C96.74910108 -0.38157138 100.31043655 -0.39384353 103.87200165 -0.42292023 C107.84669861 -0.45510691 111.82106423 -0.45596037 115.79589844 -0.45410156 C117.56966858 -0.47567322 117.56966858 -0.47567322 119.37927246 -0.49768066 C121.00303802 -0.48943268 121.00303802 -0.48943268 122.65960693 -0.48101807 C123.59983578 -0.48470524 124.54006462 -0.48839241 125.50878525 -0.49219131 C128.71591427 0.14144376 129.92502687 1.54681152 132 4 C130.76895035 3.67657623 129.5379007 3.35315247 128.26954651 3.01992798 C122.40495075 1.72513928 116.67248739 1.69271918 110.68725586 1.68115234 C109.48625244 1.67110672 108.28524902 1.6610611 107.04785156 1.65071106 C103.78195146 1.62526479 100.51614502 1.60832153 97.25017619 1.59528303 C93.82685551 1.57956435 90.40362081 1.5528024 86.98036194 1.5272522 C80.51019701 1.48061809 74.04001563 1.44380005 67.56976944 1.41057932 C60.19842633 1.37224877 52.8271699 1.32286756 45.45590007 1.27259517 C30.30399759 1.16950415 15.15204241 1.08017014 0 1 C0 0.67 0 0.34 0 0 Z " fill="#B6B6B6" transform="translate(79,24)"/>
<path d="M0 0 C0.680625 0.00644531 1.36125 0.01289062 2.0625 0.01953125 C4 0.1875 4 0.1875 7 1.1875 C7.33 21.3175 7.66 41.4475 8 62.1875 C7.01 62.6825 7.01 62.6825 6 63.1875 C4.87141156 50.57777447 4.67654735 37.96347126 4.4375 25.3125 C4.39420653 23.16014966 4.35058921 21.00780581 4.30664062 18.85546875 C4.20069584 13.63288138 4.09873954 8.4102283 4 3.1875 C0.24725989 2.37557837 -3.15454314 2.09807077 -7 2.1875 C-3.97455666 0.17053778 -3.38932618 -0.07061096 0 0 Z " fill="#A8A8A8" transform="translate(178,43.8125)"/>
<path d="M0 0 C0 5.61 0 11.22 0 17 C-1.98 17 -3.96 17 -6 17 C-6 16.34 -6 15.68 -6 15 C-15.02571754 15.42979607 -20.91216426 18.5527195 -28 24 C-26.4411666 20.17377257 -24.04566418 17.74852621 -21 15 C-17.38132441 13.7937748 -14.07493749 13.89183082 -10.3125 13.9375 C-9.61060547 13.94201172 -8.90871094 13.94652344 -8.18554688 13.95117188 C-6.45699462 13.96293073 -4.72848635 13.98086546 -3 14 C-2.67 10.04 -2.34 6.08 -2 2 C-3.11375 2.474375 -4.2275 2.94875 -5.375 3.4375 C-10.17683359 5.26185255 -14.90272966 5.69708844 -20 6 C-17.60549427 3.60549427 -16.40903764 3.54571545 -13.125 3 C-10.46832447 2.55589902 -8.33148741 2.17012184 -5.9296875 0.9375 C-4 0 -4 0 0 0 Z " fill="#959595" transform="translate(176,66)"/>
<path d="M0 0 C-4.51667907 3.01111938 -7.6639991 3.10067926 -13 3 C-13 3.66 -13 4.32 -13 5 C-14.65 5 -16.3 5 -18 5 C-19.18001549 8.54004646 -19.22912346 11.8227256 -19.31640625 15.51171875 C-19.33718735 16.23994339 -19.35796844 16.96816803 -19.37937927 17.71846008 C-19.44468746 20.04137875 -19.50367237 22.36440906 -19.5625 24.6875 C-19.60570305 26.26368335 -19.64931792 27.83985548 -19.69335938 29.41601562 C-19.8003496 33.27722975 -19.90166961 37.13855603 -20 41 C-21.43653931 40.9695459 -21.43653931 40.9695459 -22.90209961 40.93847656 C-24.16030518 40.92268555 -25.41851074 40.90689453 -26.71484375 40.890625 C-27.96128662 40.87032227 -29.20772949 40.85001953 -30.49194336 40.82910156 C-37.357513 41.16356456 -41.9333902 44.56671642 -47 49 C-45.43903239 45.16853404 -43.08588695 42.71851946 -40 40 C-36.34541793 38.63161767 -32.60739571 38.90178337 -28.75 38.9375 C-26.85507813 38.95103516 -26.85507813 38.95103516 -24.921875 38.96484375 C-23.95765625 38.97644531 -22.9934375 38.98804688 -22 39 C-21.98018066 38.04633545 -21.96036133 37.0926709 -21.93994141 36.11010742 C-21.86384986 32.57077701 -21.77513839 29.03185583 -21.68261719 25.49291992 C-21.64434202 23.96142661 -21.60948651 22.42984385 -21.578125 20.89819336 C-21.53244193 18.6961267 -21.47445463 16.49467504 -21.4140625 14.29296875 C-21.39673569 13.26625313 -21.39673569 13.26625313 -21.37905884 12.21879578 C-21.26726256 8.61539163 -21.05605447 7.0840817 -19 4 C-13.39921893 1.11474915 -6.28575095 -0.40553232 0 0 Z " fill="#B5B5B5" transform="translate(143,53)"/>
<path d="M0 0 C7.26 0 14.52 0 22 0 C22 17.82 22 35.64 22 54 C21.67 54 21.34 54 21 54 C21 36.51 21 19.02 21 1 C3.95568617 1.05262794 3.95568617 1.05262794 -4 4 C-2.68 2.68 -1.36 1.36 0 0 Z " fill="#7A7A7A" transform="translate(49,24)"/>
<path d="M0 0 C2.475 0.495 2.475 0.495 5 1 C5 1.66 5 2.32 5 3 C26.12 3 47.24 3 69 3 C69 3.33 69 3.66 69 4 C60.59419233 4.09269952 52.18859839 4.16376414 43.78240585 4.20724869 C39.87900482 4.22811969 35.9759536 4.25642757 32.07275391 4.30175781 C28.3055808 4.34523427 24.53874405 4.36914077 20.77133942 4.37950897 C19.33439081 4.38689723 17.89746053 4.40132506 16.46065521 4.42292023 C14.44758575 4.45197203 12.43417747 4.45363405 10.42089844 4.45410156 C9.27506287 4.46298401 8.12922729 4.47186646 6.94866943 4.48101807 C3.39414237 3.90116611 2.23150409 2.75204354 0 0 Z " fill="#CBCBCB" transform="translate(44,238)"/>
<path d="M0 0 C0 1.32 0 2.64 0 4 C-5.95296558 7.43440322 -12.33678156 7.13326437 -19 7 C-19 6.34 -19 5.68 -19 5 C-18.195625 4.87625 -17.39125 4.7525 -16.5625 4.625 C-15.716875 4.41875 -14.87125 4.2125 -14 4 C-13.67 3.34 -13.34 2.68 -13 2 C-11.07421875 1.3671875 -11.07421875 1.3671875 -8.6875 0.875 C-7.90761719 0.70742188 -7.12773437 0.53984375 -6.32421875 0.3671875 C-4 0 -4 0 0 0 Z " fill="#E1E1E1" transform="translate(175,54)"/>
<path d="M0 0 C0.33 0 0.66 0 1 0 C1.6888691 13.96873453 1.6888691 13.96873453 -0.8125 17.6875 C-1.534375 18.450625 -2.25625 19.21375 -3 20 C-3.474375 20.5775 -3.94875 21.155 -4.4375 21.75 C-10.22643923 26.38115138 -18.02025073 25.70205665 -25 25 C-27.63317242 23.94673103 -28.91502093 22.96233324 -31 21 C-28 21 -28 21 -25.4375 21.9375 C-20.99058005 23.31200253 -16.62518034 23.65265444 -12 24 C-12 23.34 -12 22.68 -12 22 C-11.071875 21.731875 -10.14375 21.46375 -9.1875 21.1875 C-5.49494953 19.81949169 -5.49494953 19.81949169 -3 17 C-2.27802838 14.39388923 -2.27802838 14.39388923 -2 12 C-1.34 12 -0.68 12 0 12 C0 8.04 0 4.08 0 0 Z " fill="#424242" transform="translate(131,105)"/>
<path d="M0 0 C-5.11969248 2.40174798 -9.87564124 3.75539357 -15.4375 4.6875 C-19.1809375 5.3371875 -19.1809375 5.3371875 -23 6 C-23.33 14.58 -23.66 23.16 -24 32 C-24.33 32 -24.66 32 -25 32 C-25.14483042 27.56284145 -25.23391752 23.12628723 -25.3125 18.6875 C-25.35439453 17.42486328 -25.39628906 16.16222656 -25.43945312 14.86132812 C-25.45556641 13.65283203 -25.47167969 12.44433594 -25.48828125 11.19921875 C-25.51446533 10.08377686 -25.54064941 8.96833496 -25.56762695 7.8190918 C-25 5 -25 5 -22.68701172 3.15600586 C-19.38319529 1.73463835 -16.38177231 1.28871966 -12.8125 0.875 C-1.56054931 -0.46816479 -1.56054931 -0.46816479 0 0 Z " fill="#646464" transform="translate(155,73)"/>
<path d="M0 0 C0.33 0.99 0.66 1.98 1 3 C-2.63 2.67 -6.26 2.34 -10 2 C-10.66 3.32 -11.32 4.64 -12 6 C-12.99 6.33 -13.98 6.66 -15 7 C-14.34 10.96 -13.68 14.92 -13 19 C-17 16 -17 16 -17.6015625 13.984375 C-17.65719333 8.68090299 -16.79281173 5.1391995 -13.06640625 1.2421875 C-9.03742314 -1.1797721 -4.52087856 -0.50678888 0 0 Z " fill="#C2C2C2" transform="translate(171,88)"/>
<path d="M0 0 C-8.21140114 3.31550517 -16.36317741 6.30164777 -25 8.3125 C-25.68054443 8.47137695 -26.36108887 8.63025391 -27.06225586 8.79394531 C-31.68666612 9.82121575 -36.29319904 10.46943427 -41 11 C-41 10.34 -41 9.68 -41 9 C-39.741875 8.773125 -38.48375 8.54625 -37.1875 8.3125 C-31.86710537 7.24689879 -26.62443085 5.92870652 -21.375 4.5625 C-20.57602295 4.35729736 -19.7770459 4.15209473 -18.95385742 3.94067383 C-15.07887467 2.9190911 -11.37778845 1.78878381 -7.6640625 0.27734375 C-4.04463112 -0.98444096 -3.37860288 -1.1061734 0 0 Z " fill="#4D4D4D" transform="translate(171,47)"/>
<path d="M0 0 C1.65 0 3.3 0 5 0 C5 1.98 5 3.96 5 6 C1.86501708 7.85776765 -0.37471432 8.20140476 -4 8 C-4 8.66 -4 9.32 -4 10 C-6.41474617 10.53160457 -8.83108107 11.05054766 -11.25 11.5625 C-12.27287109 11.78969727 -12.27287109 11.78969727 -13.31640625 12.02148438 C-16.81769038 12.75233495 -19.60298173 13.32203546 -23 12 C-5.85106383 6.42553191 -5.85106383 6.42553191 3 5 C3 3.68 3 2.36 3 1 C2.01 0.67 1.02 0.34 0 0 Z " fill="#535353" transform="translate(172,53)"/>
<path d="M0 0 C1.875 0.3125 1.875 0.3125 4 1 C6.48650909 4.72976364 6.40607239 7.6854808 6 12 C4.90973634 15.99763341 3.49062304 18.70129702 0 21 C-3.69015821 21.33546893 -7.30545909 21.22931633 -11 21 C-11 20.67 -11 20.34 -11 20 C-10.32453125 19.97421875 -9.6490625 19.9484375 -8.953125 19.921875 C-3.44164227 19.57182947 -3.44164227 19.57182947 1.625 17.5625 C3.80967624 13.49105792 3.63452297 9.51459445 3 5 C1.68772566 1.96534298 1.68772566 1.96534298 0 0 Z " fill="#535353" transform="translate(172,90)"/>
<path d="M0 0 C1.12148437 -0.01417969 2.24296875 -0.02835937 3.3984375 -0.04296875 C6.57384842 0.18384632 8.76734718 0.83359332 11.625 2.1875 C11.625 2.5175 11.625 2.8475 11.625 3.1875 C9.645 3.1875 7.665 3.1875 5.625 3.1875 C5.625 2.5275 5.625 1.8675 5.625 1.1875 C-3.40071754 1.61729607 -9.28716426 4.7402195 -16.375 10.1875 C-14.8161666 6.36127257 -12.42066418 3.93602621 -9.375 1.1875 C-6.0588381 0.0821127 -3.48963365 0.01996358 0 0 Z " fill="#5A5A5A" transform="translate(164.375,79.8125)"/>
<path d="M0 0 C-1 1 -1 1 -3.5625 1.0625 C-4.7690625 1.0315625 -4.7690625 1.0315625 -6 1 C-6 1.66 -6 2.32 -6 3 C-4.02 3 -2.04 3 0 3 C-2.52480693 5.52480693 -4.13823034 5.55738633 -7.625 6.125 C-8.62789062 6.29257813 -9.63078125 6.46015625 -10.6640625 6.6328125 C-11.43492187 6.75398438 -12.20578125 6.87515625 -13 7 C-12.67 6.34 -12.34 5.68 -12 5 C-10.35 5 -8.7 5 -7 5 C-7 4.34 -7 3.68 -7 3 C-10.63 3.33 -14.26 3.66 -18 4 C-14.73277083 1.82184722 -12.24630935 1.18490885 -8.4375 0.3125 C-6.70306641 -0.09548828 -6.70306641 -0.09548828 -4.93359375 -0.51171875 C-2 -1 -2 -1 0 0 Z " fill="#B9B9B9" transform="translate(162,58)"/>
<path d="M0 0 C0.33 0 0.66 0 1 0 C1.77917697 9.88689004 1.77917697 9.88689004 -1.1875 14.125 C-6.05727186 17.37151457 -10.24421509 17.11285853 -16 17 C-16.66 15.68 -17.32 14.36 -18 13 C-17.01 13.33 -16.02 13.66 -15 14 C-10.52684627 14.45552985 -6.46277633 14.78490437 -2.4375 12.625 C-0.24134127 8.61462319 -0.17222101 4.51219048 0 0 Z " fill="#4A4A4A" transform="translate(124,107)"/>
<path d="M0 0 C1.07765625 0.00902344 2.1553125 0.01804687 3.265625 0.02734375 C4.08546875 0.03894531 4.9053125 0.05054687 5.75 0.0625 C6.08 0.7225 6.41 1.3825 6.75 2.0625 C6.04875 2.01609375 5.3475 1.9696875 4.625 1.921875 C-4.72873587 1.56602635 -10.22873655 3.91889448 -17.25 10.0625 C-15.68903239 6.23103404 -13.33588695 3.78101946 -10.25 1.0625 C-6.86588819 -0.15995449 -3.56845076 -0.03878751 0 0 Z " fill="#646464" transform="translate(113.25,91.9375)"/>
<path d="M0 0 C2.46948242 1.16723633 2.46948242 1.16723633 5 3 C5.56762695 5.4519043 5.56762695 5.4519043 5.48828125 8.32421875 C5.47216797 9.35224609 5.45605469 10.38027344 5.43945312 11.43945312 C5.39755859 12.51130859 5.35566406 13.58316406 5.3125 14.6875 C5.28994141 15.77095703 5.26738281 16.85441406 5.24414062 17.97070312 C5.1851579 20.64851905 5.10290307 23.32357027 5 26 C4.67 26 4.34 26 4 26 C4 19.4 4 12.8 4 6 C3.34 6 2.68 6 2 6 C1.34 4.02 0.68 2.04 0 0 Z " fill="#3C3C3C" transform="translate(212,28)"/>
<path d="M0 0 C0.33 0 0.66 0 1 0 C1.68858357 13.96294462 1.68858357 13.96294462 -0.75 17.6875 C-2.73349035 19.7260873 -4.60893561 21.46288718 -7 23 C-5.84826645 20.53199953 -4.95216435 18.95216435 -3 17 C-2.35232207 14.42938689 -2.35232207 14.42938689 -2 12 C-1.34 12 -0.68 12 0 12 C0 8.04 0 4.08 0 0 Z " fill="#595959" transform="translate(131,105)"/>
<path d="M0 0 C0 0.66 0 1.32 0 2 C-4.50353262 3.75747614 -8.17639811 4.19294408 -13 4 C-13 3.34 -13 2.68 -13 2 C-8.49646738 0.24252386 -4.82360189 -0.19294408 0 0 Z " fill="#F4F4F4" transform="translate(155,61)"/>
<path d="M0 0 C-6.07636898 4.05091266 -12.81875469 5.34715952 -20 6 C-18.55370416 3.10740831 -17.06512057 3.02170686 -14 2 C-9.32991334 0.76479592 -4.86433725 -0.31382821 0 0 Z " fill="#B3B3B3" transform="translate(165,47)"/>
<path d="M0 0 C1.47533203 0.02707031 1.47533203 0.02707031 2.98046875 0.0546875 C5.40463783 0.10175874 7.82682059 0.16749258 10.25 0.25 C10.25 0.58 10.25 0.91 10.25 1.25 C8.94804688 1.29898437 7.64609375 1.34796875 6.3046875 1.3984375 C4.57810529 1.47350629 2.85154378 1.54905233 1.125 1.625 C-0.15890625 1.67140625 -0.15890625 1.67140625 -1.46875 1.71875 C-6.2375872 1.93885018 -10.26576807 2.44160483 -14.75 4.25 C-11.0671236 -1.25265062 -5.94711347 -0.20589208 0 0 Z " fill="#A5A5A5" transform="translate(59.75,23.75)"/>
<path d="M0 0 C6.6 0 13.2 0 20 0 C20 0.33 20 0.66 20 1 C18.26363281 1.05607422 18.26363281 1.05607422 16.4921875 1.11328125 C14.95309439 1.17897425 13.4140333 1.24542042 11.875 1.3125 C10.73417969 1.34633789 10.73417969 1.34633789 9.5703125 1.38085938 C4.69049587 1.61222999 1.29109862 2.44316328 -3 5 C-2.67 4.01 -2.34 3.02 -2 2 C-1.34 2 -0.68 2 0 2 C0 1.34 0 0.68 0 0 Z " fill="#3C3C3B" transform="translate(49,203)"/>
<path d="M0 0 C1 2 1 2 0.9375 5 C0.84625674 9.79534042 1.9508268 14.34429391 3 19 C0.37143455 17.68571727 0.03169176 16.74057327 -1 14 C-1.23046875 10.80078125 -1.23046875 10.80078125 -1.1875 7.3125 C-1.18105469 6.15363281 -1.17460938 4.99476562 -1.16796875 3.80078125 C-1 1 -1 1 0 0 Z " fill="#4C4C4B" transform="translate(95,104)"/>
<path d="M0 0 C2.3828125 -0.29296875 2.3828125 -0.29296875 5.125 -0.1875 C6.03507812 -0.16042969 6.94515625 -0.13335937 7.8828125 -0.10546875 C8.58148438 -0.07066406 9.28015625 -0.03585938 10 0 C10.33 0.99 10.66 1.98 11 3 C6.71 3 2.42 3 -2 3 C-1.34 2.01 -0.68 1.02 0 0 Z " fill="#BBBBBB" transform="translate(109,100)"/>
<path d="M0 0 C0.66 0.33 1.32 0.66 2 1 C0.02 3.31 -1.96 5.62 -4 8 C-4.99 7.67 -5.98 7.34 -7 7 C-3.375 1.125 -3.375 1.125 0 0 Z " fill="#434343" transform="translate(44,18)"/>
<path d="M0 0 C2.475 0.495 2.475 0.495 5 1 C5 1.66 5 2.32 5 3 C9.62 3 14.24 3 19 3 C19 3.33 19 3.66 19 4 C16.5821288 4.10826289 14.16912444 4.18739789 11.75 4.25 C10.72712891 4.30027344 10.72712891 4.30027344 9.68359375 4.3515625 C6.07818187 4.4215705 4.35931188 4.29151719 1.515625 1.984375 C1.01546875 1.32953125 0.5153125 0.6746875 0 0 Z " fill="#BABABA" transform="translate(44,238)"/>
<path d="M0 0 C2.31 0.66 4.62 1.32 7 2 C4.4345406 4.5654594 2.52313332 4.54046087 -1 5 C-1 1 -1 1 0 0 Z " fill="#C7C7C7" transform="translate(133,65)"/>
<path d="M0 0 C4 1.33333333 8 2.66666667 12 4 C12 4.66 12 5.32 12 6 C4.61538462 5.63076923 4.61538462 5.63076923 1.5 2.4375 C1.005 1.633125 0.51 0.82875 0 0 Z " fill="#515151" transform="translate(38,233)"/>
<path d="M0 0 C1.875 0.3125 1.875 0.3125 4 1 C6.67927341 5.01891012 6.15601248 7.24161923 6 12 C5.67 12 5.34 12 5 12 C5 9.69 5 7.38 5 5 C4.01 4.67 3.02 4.34 2 4 C0.8125 1.9375 0.8125 1.9375 0 0 Z " fill="#464646" transform="translate(172,90)"/>
<path d="M0 0 C-0.33 1.32 -0.66 2.64 -1 4 C-3.31 4.33 -5.62 4.66 -8 5 C-6.68 4.67 -5.36 4.34 -4 4 C-4 3.01 -4 2.02 -4 1 C-2 0 -2 0 0 0 Z " fill="#DCDCDC" transform="translate(174,55)"/>
</svg>
